<svg xmlns="http://www.w3.org/2000/svg" width="1235.601" height="355.547" viewBox="0 0 1235.601 355.547">
  <g id="Powered-by-konfigear" transform="translate(0 26.24)">
    <path id="Tracé_1" data-name="Tracé 1" d="M758.39,274.61V245.15l73.66.44v39.57c-3.88,14-17.85,27.46-29.12,34.29-45.15,27.34-95.9-.78-107.49-41.32-13.3-46.52,14-83.79,45.82-93.65,42.19-13.06,85.23,9.74,89.07,46.6H787.94c-5.19-10.05-22-16-36-10.11-13.62,5.74-22.92,23.73-18.42,44.85,6.91,32.43,50.48,38.44,64.24,8.79Z" transform="translate(-27.4 -17.81)" fill-rule="evenodd"/>
    <path id="Tracé_2" data-name="Tracé 2" d="M31.86,184.21H72v60.28l.86.28,43.45-60.64,45.18.43L109.9,253.38l54.65,73.12h-48.2L72.47,264.57l-.43.13v61.8H31.86Z" transform="translate(-27.4 -17.81)" fill-rule="evenodd"/>
    <path id="Tracé_3" data-name="Tracé 3" d="M334.86,185.11l41.05.86,52,78.59H428q.22-40.17.43-80.35h38.71V326.5l-38.51.29S392.5,274.1,375,248.33V326.5H334.86Z" transform="translate(-27.4 -17.81)" fill-rule="evenodd"/>
    <path id="Tracé_4" data-name="Tracé 4" d="M500.59,184.21h97.09V216H540.77v25.11h41.85v30.13H540.77V326.5H500.59Z" transform="translate(-27.4 -17.81)" fill-rule="evenodd"/>
    <path id="Tracé_5" data-name="Tracé 5" d="M624.47,184.21h40.17V326.5H624.47Z" transform="translate(-27.4 -17.81)" fill-rule="evenodd"/>
    <path id="Tracé_6" data-name="Tracé 6" d="M860.5,184.23l92.08.43V216h-51.9v23.43h45.2v30.14h-45.2V294.7h51.9v31.8H860.5Z" transform="translate(-27.4 -17.81)" fill-rule="evenodd"/>
    <path id="Soustraction_1" data-name="Soustraction 1" d="M8.12-97.559H-34c18.381-50.7,34.936-96.352,52.1-143.68l46.46.429C81.4-194.1,114.806-101.508,116.22-97.59H73.67c-.033-.1-4.937-15.791-7.38-23.4H15.5L8.12-97.56ZM40.15-183.6l-14.7,45.82h30l.311-.43Z" transform="translate(978.27 406.28)"/>
    <path id="Soustraction_2" data-name="Soustraction 2" d="M83.931-95.285h0l-45,0c-10.068-19.007-19.534-36.866-28.94-54.6l-3.81,1v53.6H-34l.02-145.34c4.951-.057,10.119-.171,15.117-.28h.01c7.47-.164,15.192-.333,22.711-.333,15.636,0,27.442.774,37.155,2.435,12.331,2.109,21.512,5.681,28.068,10.919a38.489,38.489,0,0,1,8.065,8.711,37.767,37.767,0,0,1,4.76,10.117,44.51,44.51,0,0,1,.7,21.977A50.855,50.855,0,0,1,78.538-175.3a49.273,49.273,0,0,1-6.773,10.366A39.9,39.9,0,0,1,51.61-151.887l32.321,56.6ZM17.341-191.3c-2.751,0-5.6.1-8.614.2-1.373.046-2.792.093-4.207.131v29.4c1.148.031,2.3.07,3.515.11,2.851.1,5.8.194,8.7.194a58.335,58.335,0,0,0,12.609-1.076c4.135-.926,7.062-2.47,8.947-4.721,2.3-2.751,3-6.47,2.124-11.367-.915-5.15-3.477-8.613-7.831-10.587C29.055-190.622,24.5-191.3,17.341-191.3Z" transform="translate(1151.67 403.976)"/>
    <path id="Tracé_9" data-name="Tracé 9" d="M231.64,198.82c9.44-.21,19.81-.78,25.08,3a35.64,35.64,0,0,1,.87,9.51c8.53,2.39,13.67,8.56,19,1.29l5.19-.86c5.11.74,18.21,14.16,18.59,19.89-1.84,3.38-3.09,5.6-6,7.78,2.22,4.67,4.54,9.16,6,14.69,3.17-.13,7.61-.42,9.51.87,6,4,3.35,24.91,0,29.4a36.1,36.1,0,0,1-9.51.86c-2.4,8.53-8.56,13.67-1.3,19,3.31,10.05-16.45,32.15-26.81,17.73-4.68,2.22-9.17,4.54-14.7,6.05.13,3.16.42,7.6-.87,9.51-4.05,6-24.92,3.34-29.4,0a36.15,36.15,0,0,1-.87-9.51c-8.53-2.4-13.67-8.56-19-1.3l-5.19.86c-5.11-.74-18.22-14.15-18.6-19.88,1.58-3.66,3.37-5.37,6.06-7.78-1.53-4.86-4.55-9.17-6.06-14.7-3.17.13-7.6.42-9.51-.86-6-4.05-3.35-24.92,0-29.4a36.58,36.58,0,0,1,9.51-.87c1-4.19,3.13-12.14,6.06-14.69-2.1-3.07-8.15-5.39-5.62-11.68l6.91-6.91c6.41-6.41,13.08-14,20.76-3.46,4.68-2.22,9.17-4.54,14.7-6C226.14,203.34,227.39,202,231.64,198.82Z" transform="translate(-27.4 -17.81)" fill="none" stroke="#003399" stroke-width="12" fill-rule="evenodd"/>
    <path id="Tracé_13" data-name="Tracé 13" d="M238.56,238.16c-13.5,5.65-23.19,8.6-27.24,23.34-5.7,20.74,13.12,43.5,34.16,39.77C284.4,294.38,282.48,237.34,238.56,238.16Z" transform="translate(-27.4 -17.81)" fill="none" stroke="#003399" stroke-width="10" fill-rule="evenodd"/>
    <text id="Powered_by" data-name="Powered by" transform="translate(0 113.76)" font-size="133.75" font-family="Poppins-SemiBold, Poppins" font-weight="600" letter-spacing="-0.02em"><tspan x="0" y="0">Powered by</tspan></text>
  </g>
</svg>
